<svg xmlns="http://www.w3.org/2000/svg" viewBox="0 0 241.34998 297.8125"><path d="M231.85,38.745a5.99056,5.99056,0,0,1,5.5,5.97v140.26c0,55.2-97.49,100.88-114.24,108.32a5.98746,5.98746,0,0,1-4.87,0C101.49,285.855,4,240.175,4,184.975V44.715a5.9835,5.9835,0,0,1,5.5-5.97Q75.845,33.42,117.32,5.035a5.939,5.939,0,0,1,6.7,0Q165.49492,33.4,231.85,38.745Z" style="fill:#3a86ff;stroke:#3a86ff;stroke-width:8px"/><path d="M184.68,151.585l-73.97,73.97a10.52,10.52,0,0,1-14.88,0l-52.05-52.05a10.51994,10.51994,0,0,1,0-14.88l73.97-73.97a10.53947,10.53947,0,0,1,5.38-2.88l65.06-13.01a10.5204,10.5204,0,0,1,12.38,12.38l-13.01,65.06A10.53927,10.53927,0,0,1,184.68,151.585Z" style="fill:#ffbe0b"/><circle cx="173.91995" cy="95.425" r="8.92001" style="fill:#fff"/></svg>