<?xml version="1.0" encoding="utf-8"?>
<svg version="1.1" xmlns="http://www.w3.org/2000/svg" xmlns:xlink="http://www.w3.org/1999/xlink" x="0px" y="0px"
	 viewBox="0 0 512 512" style="enable-background:new 0 0 512 512;" xml:space="preserve">
<style type="text/css">
	.st0{fill:#FFFFFF;}
	.st1{fill:#3A86FF;stroke:#3A86FF;stroke-width:8;}
	.st2{fill:#FFBE0B;}
</style>
<g id="PriceGuard_icon">
	<g id="icon_00000022556362668807117870000010067769582457670293_">
		<path id="shield_00000129893442977663155400000007097100199857997238_" class="st1" d="M367.17,146.23
			c3.11,0.25,5.5,2.86,5.5,5.97v140.26c0,55.2-97.49,100.88-114.24,108.32c-1.55,0.69-3.31,0.69-4.87,0
			c-16.75-7.44-114.24-53.12-114.24-108.32l0-140.26c0-3.12,2.39-5.72,5.5-5.97c44.23-3.55,80.18-14.79,107.82-33.71
			c2.02-1.38,4.68-1.38,6.7,0C286.99,131.43,322.92,142.67,367.17,146.23z"/>
		<path id="pricetag_00000146489201165939474330000000860669250619685266_" class="st2" d="M320,259.07l-73.97,73.97
			c-4.11,4.11-10.77,4.11-14.88,0l-52.05-52.05c-4.11-4.11-4.11-10.77,0-14.88l73.97-73.97c1.47-1.47,3.34-2.47,5.38-2.88
			l65.06-13.01c7.36-1.47,13.86,5.02,12.38,12.38l-13.01,65.06C322.47,255.73,321.47,257.6,320,259.07z"/>
		<circle id="pricetag_hole_00000044172946099148333630000011639171519344640958_" class="st0" cx="309.24" cy="202.91" r="8.92"/>
	</g>
</g>
</svg>
